<svg width="140" height="140" viewBox="0 0 140 140" fill="none" xmlns="http://www.w3.org/2000/svg">
<path d="M69.9993 90.8671L49.3552 70.2288L53.4852 66.0288L67.0827 79.6263V29.168H72.916V79.6263L86.5077 66.0346L90.6435 70.2288L69.9993 90.8671ZM38.5927 110.835C35.9055 110.835 33.6635 109.936 31.8668 108.14C30.0702 106.343 29.1699 104.099 29.166 101.408V87.2738H34.9993V101.408C34.9993 102.306 35.3727 103.131 36.1193 103.881C36.866 104.632 37.6885 105.005 38.5868 105.001H101.412C102.306 105.001 103.129 104.628 103.879 103.881C104.63 103.135 105.003 102.31 104.999 101.408V87.2738H110.833V101.408C110.833 104.095 109.934 106.337 108.138 108.134C106.341 109.93 104.097 110.831 101.406 110.835H38.5927Z" fill="#E94E24"/>
</svg>
